<svg width="58" height="15" viewBox="0 0 58 15" fill="none" xmlns="http://www.w3.org/2000/svg">
<path d="M4.61203 0.14C4.85203 0.58 5.12536 1.12667 5.43203 1.78C5.75203 2.42 6.0787 3.12 6.41203 3.88C6.7587 4.62667 7.0987 5.39333 7.43203 6.18C7.76536 6.96667 8.0787 7.70667 8.37203 8.4C8.66537 7.70667 8.9787 6.96667 9.31203 6.18C9.64537 5.39333 9.9787 4.62667 10.312 3.88C10.6587 3.12 10.9854 2.42 11.292 1.78C11.612 1.12667 11.892 0.58 12.132 0.14H14.972C15.1054 1.06 15.2254 2.09333 15.332 3.24C15.452 4.37333 15.552 5.56 15.632 6.8C15.7254 8.02667 15.8054 9.26 15.872 10.5C15.952 11.74 16.0187 12.9067 16.072 14H13.032C12.992 12.6533 12.9387 11.1867 12.872 9.6C12.8054 8.01333 12.7054 6.41333 12.572 4.8C12.332 5.36 12.0654 5.98 11.772 6.66C11.4787 7.34 11.1854 8.02 10.892 8.7C10.612 9.38 10.3387 10.0333 10.072 10.66C9.80536 11.2733 9.5787 11.8 9.39203 12.24H7.21203C7.02537 11.8 6.7987 11.2733 6.53203 10.66C6.26536 10.0333 5.98536 9.38 5.69203 8.7C5.41203 8.02 5.12536 7.34 4.83203 6.66C4.5387 5.98 4.27203 5.36 4.03203 4.8C3.8987 6.41333 3.7987 8.01333 3.73203 9.6C3.66536 11.1867 3.61203 12.6533 3.57203 14H0.532031C0.585365 12.9067 0.645365 11.74 0.712031 10.5C0.792031 9.26 0.872031 8.02667 0.952031 6.8C1.04536 5.56 1.14536 4.37333 1.25203 3.24C1.37203 2.09333 1.4987 1.06 1.63203 0.14H4.61203ZM18.8813 14V0.14H28.2413V2.76H22.0013V5.48H27.5413V8.04H22.0013V11.38H28.7013V14H18.8813ZM40.3102 14C39.4168 12.4133 38.4502 10.8467 37.4102 9.3C36.3702 7.75333 35.2635 6.29333 34.0902 4.92V14H31.0102V0.14H33.5502C33.9902 0.58 34.4768 1.12 35.0102 1.76C35.5435 2.4 36.0835 3.08667 36.6302 3.82C37.1902 4.54 37.7435 5.29333 38.2902 6.08C38.8368 6.85333 39.3502 7.6 39.8302 8.32V0.14H42.9302V14H40.3102ZM51.5473 14.28C50.574 14.28 49.734 14.1467 49.0273 13.88C48.3207 13.6 47.734 13.22 47.2673 12.74C46.814 12.2467 46.474 11.6667 46.2473 11C46.034 10.32 45.9273 9.57333 45.9273 8.76V0.14H49.0473V8.5C49.0473 9.06 49.1073 9.54 49.2273 9.94C49.3607 10.3267 49.534 10.6467 49.7473 10.9C49.974 11.14 50.2407 11.3133 50.5473 11.42C50.8673 11.5267 51.214 11.58 51.5873 11.58C52.3473 11.58 52.9607 11.3467 53.4273 10.88C53.9073 10.4133 54.1473 9.62 54.1473 8.5V0.14H57.2673V8.76C57.2673 9.57333 57.154 10.32 56.9273 11C56.7007 11.68 56.354 12.2667 55.8873 12.76C55.4207 13.24 54.8273 13.6133 54.1073 13.88C53.3873 14.1467 52.534 14.28 51.5473 14.28Z" fill="white"/>
</svg>
