<svg width="107" height="16" viewBox="0 0 107 16" fill="none" xmlns="http://www.w3.org/2000/svg">
<path d="M16.4471 0.867188V15.6806H12.5281V7.80784L9.34982 12.6763H7.10494L3.92662 7.78859V15.6844H0V0.867188H3.71061L8.22353 7.80784L12.7364 0.867188H16.4471Z" fill="white"/>
<path d="M26.0669 0.550781C31.3666 0.550781 34.0127 4.14821 34.0127 8.27717C34.0127 12.4061 31.3628 16.0036 26.0669 16.0036C20.7709 16.0036 18.1172 12.4061 18.1172 8.27717C18.1172 4.14821 20.7671 0.550781 26.0669 0.550781ZM26.0669 4.14821C23.5018 4.14821 22.1441 5.90456 22.1441 8.27332C22.1441 10.6421 23.5018 12.3984 26.0669 12.3984C28.6319 12.3984 29.9858 10.6421 29.9858 8.27332C29.9858 5.90456 28.628 4.14821 26.0669 4.14821Z" fill="white"/>
<path d="M40.7178 0.550727C42.5616 0.550727 44.4053 0.993665 45.6975 1.73703V5.33446C44.4246 4.38311 42.7506 3.91706 41.0341 3.93632C39.5915 3.95943 39.1479 4.33689 39.1479 4.88767C39.1479 6.81349 46.8623 6.22034 46.8623 11.4701C46.8623 14.9828 44.17 15.9997 40.9261 15.9997C38.7854 15.9997 36.7951 15.5144 35.2252 14.6439V10.9386C36.9841 12.1442 38.9358 12.6102 40.6291 12.6102C42.1758 12.6102 42.8316 12.356 42.8316 11.6165C42.8316 9.47883 35.1172 10.1991 35.1172 4.90693C35.1172 1.94502 37.6591 0.546875 40.714 0.546875L40.7178 0.550727Z" fill="white"/>
<path d="M56.3295 0.550781C57.9187 0.550781 59.531 0.889726 60.9273 1.48288V5.18816C59.8241 4.42553 58.3198 4.00185 56.8387 4.00185C54.4434 4.00185 52.1753 5.23052 52.1753 8.27717C52.1753 11.9401 54.8677 12.6372 56.561 12.6372C56.9853 12.6372 57.3247 12.5949 57.5793 12.5332V7.53766H61.2899V15.0098C59.7663 15.6454 58.046 16.0036 56.372 16.0036C52.1561 16.0036 48.1484 13.6541 48.1484 8.27717C48.1484 2.90028 52.1946 0.550781 56.3295 0.550781Z" fill="white"/>
<path d="M64.125 15.6844V0.867188H70.3775C73.3861 0.867188 76.4603 1.94565 76.4603 5.86276C76.4603 8.31626 75.253 9.65278 73.6214 10.3076L77.7139 15.6844H73.2858L69.7449 10.8583H68.0478V15.6844H64.1289H64.125ZM68.0439 7.68459H70.5434C71.6658 7.68459 72.4295 7.11455 72.4295 5.97061C72.4295 4.82667 71.6658 4.25663 70.5434 4.25663H68.0439V7.68459Z" fill="white"/>
<path d="M78.5429 15.6845L84.3711 0.871094H88.6102L94.4384 15.6845H90.4115L89.5629 13.3581H83.4145L82.566 15.6845H78.5391H78.5429ZM84.5833 10.1805H88.398L86.8706 5.90519C86.7433 5.54699 86.616 5.18493 86.4887 4.40305C86.3614 5.18493 86.2342 5.54699 86.1069 5.90519L84.5794 10.1805H84.5833Z" fill="white"/>
<path d="M106.813 0.867188V4.36063H100.032V6.92197H106.2V10.4154H100.032V15.6844H96.1094V0.867188H106.813Z" fill="white"/>
</svg>
